<svg xmlns="http://www.w3.org/2000/svg" viewBox="0 0 640 700" role="img" aria-labelledby="title desc"><title id="title">QRIS dukungan SonkuPik</title><desc id="desc">QRIS statis untuk dukungan sukarela kepada SonkuPik, Audio Developer.</desc><defs><filter id="shadow" x="-20%" y="-20%" width="140%" height="140%"><feDropShadow dx="0" dy="14" stdDeviation="18" flood-color="#5b6470" flood-opacity=".22"/></filter></defs><rect width="640" height="700" fill="#f5f7fa"/><text x="320" y="72" text-anchor="middle" font-family="Arial, Helvetica, sans-serif" font-size="58" font-weight="900" letter-spacing="-6" fill="#050505">QRIS</text><g filter="url(#shadow)"><rect x="28" y="92" width="584" height="570" rx="38" fill="#fff"/></g><path d="M28 138 L68 180 L68 510 L28 550 Z" fill="#f2243b"/><path d="M388 662 H574 Q612 662 612 624 V462 L574 502 V610 H432 Z" fill="#f2243b"/><g fill="#000"><rect x="102.131" y="152.787" width="8.197" height="8.197"/><rect x="110.328" y="152.787" width="8.197" height="8.197"/><rect x="118.525" y="152.787" width="8.197" height="8.197"/><rect x="126.721" y="152.787" width="8.197" height="8.197"/><rect x="134.918" y="152.787" width="8.197" height="8.197"/><rect x="143.115" y="152.787" width="8.197" height="8.197"/><rect x="151.311" y="152.787" width="8.197" height="8.197"/><rect x="192.295" y="152.787" width="8.197" height="8.197"/><rect x="208.689" y="152.787" width="8.197" height="8.197"/><rect x="216.885" y="152.787" width="8.197" height="8.197"/><rect x="225.082" y="152.787" width="8.197" height="8.197"/><rect x="233.279" y="152.787" width="8.197" height="8.197"/><rect x="249.672" y="152.787" width="8.197" height="8.197"/><rect x="257.869" y="152.787" width="8.197" height="8.197"/><rect x="274.262" y="152.787" width="8.197" height="8.197"/><rect x="290.656" y="152.787" width="8.197" height="8.197"/><rect x="298.852" y="152.787" width="8.197" height="8.197"/><rect x="307.049" y="152.787" width="8.197" height="8.197"/><rect x="315.246" y="152.787" width="8.197" height="8.197"/><rect x="323.443" y="152.787" width="8.197" height="8.197"/><rect x="339.836" y="152.787" width="8.197" height="8.197"/><rect x="348.033" y="152.787" width="8.197" height="8.197"/><rect x="356.230" y="152.787" width="8.197" height="8.197"/><rect x="372.623" y="152.787" width="8.197" height="8.197"/><rect x="389.016" y="152.787" width="8.197" height="8.197"/><rect x="397.213" y="152.787" width="8.197" height="8.197"/><rect x="405.410" y="152.787" width="8.197" height="8.197"/><rect x="413.607" y="152.787" width="8.197" height="8.197"/><rect x="421.803" y="152.787" width="8.197" height="8.197"/><rect x="430.000" y="152.787" width="8.197" height="8.197"/><rect x="438.197" y="152.787" width="8.197" height="8.197"/><rect x="479.180" y="152.787" width="8.197" height="8.197"/><rect x="487.377" y="152.787" width="8.197" height="8.197"/><rect x="495.574" y="152.787" width="8.197" height="8.197"/><rect x="503.770" y="152.787" width="8.197" height="8.197"/><rect x="511.967" y="152.787" width="8.197" height="8.197"/><rect x="520.164" y="152.787" width="8.197" height="8.197"/><rect x="528.361" y="152.787" width="8.197" height="8.197"/><rect x="102.131" y="160.984" width="8.197" height="8.197"/><rect x="151.311" y="160.984" width="8.197" height="8.197"/><rect x="175.902" y="160.984" width="8.197" height="8.197"/><rect x="192.295" y="160.984" width="8.197" height="8.197"/><rect x="216.885" y="160.984" width="8.197" height="8.197"/><rect x="233.279" y="160.984" width="8.197" height="8.197"/><rect x="249.672" y="160.984" width="8.197" height="8.197"/><rect x="266.066" y="160.984" width="8.197" height="8.197"/><rect x="282.459" y="160.984" width="8.197" height="8.197"/><rect x="307.049" y="160.984" width="8.197" height="8.197"/><rect x="331.639" y="160.984" width="8.197" height="8.197"/><rect x="356.230" y="160.984" width="8.197" height="8.197"/><rect x="372.623" y="160.984" width="8.197" height="8.197"/><rect x="389.016" y="160.984" width="8.197" height="8.197"/><rect x="421.803" y="160.984" width="8.197" height="8.197"/><rect x="438.197" y="160.984" width="8.197" height="8.197"/><rect x="462.787" y="160.984" width="8.197" height="8.197"/><rect x="479.180" y="160.984" width="8.197" height="8.197"/><rect x="528.361" y="160.984" width="8.197" height="8.197"/><rect x="102.131" y="169.180" width="8.197" height="8.197"/><rect x="118.525" y="169.180" width="8.197" height="8.197"/><rect x="126.721" y="169.180" width="8.197" height="8.197"/><rect x="134.918" y="169.180" width="8.197" height="8.197"/><rect x="151.311" y="169.180" width="8.197" height="8.197"/><rect x="167.705" y="169.180" width="8.197" height="8.197"/><rect x="175.902" y="169.180" width="8.197" height="8.197"/><rect x="192.295" y="169.180" width="8.197" height="8.197"/><rect x="200.492" y="169.180" width="8.197" height="8.197"/><rect x="216.885" y="169.180" width="8.197" height="8.197"/><rect x="233.279" y="169.180" width="8.197" height="8.197"/><rect x="249.672" y="169.180" width="8.197" height="8.197"/><rect x="266.066" y="169.180" width="8.197" height="8.197"/><rect x="282.459" y="169.180" width="8.197" height="8.197"/><rect x="290.656" y="169.180" width="8.197" height="8.197"/><rect x="298.852" y="169.180" width="8.197" height="8.197"/><rect x="307.049" y="169.180" width="8.197" height="8.197"/><rect x="331.639" y="169.180" width="8.197" height="8.197"/><rect x="348.033" y="169.180" width="8.197" height="8.197"/><rect x="356.230" y="169.180" width="8.197" height="8.197"/><rect x="372.623" y="169.180" width="8.197" height="8.197"/><rect x="380.820" y="169.180" width="8.197" height="8.197"/><rect x="389.016" y="169.180" width="8.197" height="8.197"/><rect x="397.213" y="169.180" width="8.197" height="8.197"/><rect x="413.607" y="169.180" width="8.197" height="8.197"/><rect x="421.803" y="169.180" width="8.197" height="8.197"/><rect x="438.197" y="169.180" width="8.197" height="8.197"/><rect x="454.590" y="169.180" width="8.197" height="8.197"/><rect x="462.787" y="169.180" width="8.197" height="8.197"/><rect x="479.180" y="169.180" width="8.197" height="8.197"/><rect x="495.574" y="169.180" width="8.197" height="8.197"/><rect x="503.770" y="169.180" width="8.197" height="8.197"/><rect x="511.967" y="169.180" width="8.197" height="8.197"/><rect x="528.361" y="169.180" width="8.197" height="8.197"/><rect x="102.131" y="177.377" width="8.197" height="8.197"/><rect x="118.525" y="177.377" width="8.197" height="8.197"/><rect x="126.721" y="177.377" width="8.197" height="8.197"/><rect x="134.918" y="177.377" width="8.197" height="8.197"/><rect x="151.311" y="177.377" width="8.197" height="8.197"/><rect x="175.902" y="177.377" width="8.197" height="8.197"/><rect x="184.098" y="177.377" width="8.197" height="8.197"/><rect x="216.885" y="177.377" width="8.197" height="8.197"/><rect x="233.279" y="177.377" width="8.197" height="8.197"/><rect x="249.672" y="177.377" width="8.197" height="8.197"/><rect x="266.066" y="177.377" width="8.197" height="8.197"/><rect x="282.459" y="177.377" width="8.197" height="8.197"/><rect x="315.246" y="177.377" width="8.197" height="8.197"/><rect x="331.639" y="177.377" width="8.197" height="8.197"/><rect x="356.230" y="177.377" width="8.197" height="8.197"/><rect x="389.016" y="177.377" width="8.197" height="8.197"/><rect x="421.803" y="177.377" width="8.197" height="8.197"/><rect x="438.197" y="177.377" width="8.197" height="8.197"/><rect x="454.590" y="177.377" width="8.197" height="8.197"/><rect x="462.787" y="177.377" width="8.197" height="8.197"/><rect x="479.180" y="177.377" width="8.197" height="8.197"/><rect x="528.361" y="177.377" width="8.197" height="8.197"/></g></svg>