<svg xmlns="http://www.w3.org/2000/svg" viewBox="0 0 640 700" role="img" aria-labelledby="title desc"><title id="title">QRIS dukungan SonkuPik</title><desc id="desc">QRIS statis untuk dukungan sukarela kepada SonkuPik, Audio Developer.</desc><defs><filter id="s" x="-20%" y="-20%" width="140%" height="140%"><feDropShadow dx="0" dy="14" stdDeviation="18" flood-color="#5b6470" flood-opacity=".22"/></filter></defs><rect width="640" height="700" fill="#f5f7fa"/><text x="320" y="72" text-anchor="middle" font-family="Arial,Helvetica,sans-serif" font-size="58" font-weight="900" letter-spacing="-6" fill="#050505">QRIS</text><g filter="url(#s)"><rect x="28" y="92" width="584" height="570" rx="38" fill="#fff"/></g><path d="M28 138L68 180V510L28 550Z" fill="#f2243b"/><path d="M388 662H574Q612 662 612 624V462L574 502V610H432Z" fill="#f2243b"/><g transform="translate(70 120) scale(8.19672131147541)"><path d="M4 4h7v1h-7zM13 4h1v1h-1zM15 4h1v1h-1zM17 4h1v1h-1zM19 4h1v1h-1zM22 4h3v1h-3zM26 4h2v1h-2zM29 4h1v1h-1zM35 4h1v1h-1zM42 4h5v1h-5zM50 4h7v1h-7zM4 5h1v1h-1zM10 5h1v1h-1zM12 5h2v1h-2zM20 5h2v1h-2zM23 5h3v1h-3zM27 5h6v1h-6zM36 5h4v1h-4zM43 5h1v1h-1zM45 5h3v1h-3zM50 5h1v1h-1zM56 5h1v1h-1zM4 6h1v1h-1zM6 6h3v1h-3zM10 6h1v1h-1zM17 6h1v1h-1zM20 6h3v1h-3zM24 6h1v1h-1zM27 6h1v1h-1zM29 6h1v1h-1zM31 6h2v1h-2zM34 6h1v1h-1zM36 6h1v1h-1zM38 6h1v1h-1zM40 6h5v1h-5zM47 6h1v1h-1zM50 6h1v1h-1zM52 6h3v1h-3zM56 6h1v1h-1zM4 7h1v1h-1zM6 7h3v1h-3zM10 7h1v1h-1zM13 7h3v1h-3zM20 7h1v1h-1zM22 7h1v1h-1zM26 7h1v1h-1zM29 7h1v1h-1zM35 7h4v1h-4zM40 7h1v1h-1zM42 7h1v1h-1zM45 7h2v1h-2zM48 7h1v1h-1zM50 7h1v1h-1zM52 7h3v1h-3zM56 7h1v1h-1zM4 8h1v1h-1zM6 8h3v1h-3zM10 8h1v1h-1zM12 8h1v1h-1zM14 8h1v1h-1zM16 8h5v1h-5zM22 8h2v1h-2zM27 8h6v1h-6zM34 8h2v1h-2zM38 8h1v1h-1zM42 8h1v1h-1zM45 8h2v1h-2zM50 8h1v1h-1zM52 8h3v1h-3zM56 8h1v1h-1zM4 9h1v1h-1zM10 9h1v1h-1zM13 9h1v1h-1zM15 9h3v1h-3zM19 9h1v1h-1zM21 9h2v1h-2zM25 9h2v1h-2zM28 9h1v1h-1zM32 9h1v1h-1zM34 9h3v1h-3zM38 9h1v1h-1zM40 9h3v1h-3zM46 9h1v1h-1zM50 9h1v1h-1zM56 9h1v1h-1zM4 10h7v1h-7zM12 10h1v1h-1zM14 10h1v1h-1zM16 10h1v1h-1zM18 10h1v1h-1zM20 10h1v1h-1zM22 10h1v1h-1zM24 10h1v1h-1zM26 10h1v1h-1zM28 10h1v1h-1zM30 10h1v1h-1zM32 10h1v1h-1zM34 10h1v1h-1zM36 10h1v1h-1zM38 10h1v1h-1zM40 10h1v1h-1zM42 10h1v1h-1zM44 10h1v1h-1zM46 10h1v1h-1zM48 10h1v1h-1zM50 10h7v1h-7zM16 11h3v1h-3zM21 11h3v1h-3zM25 11h2v1h-2zM28 11h1v1h-1zM32 11h2v1h-2zM37 11h4v1h-4zM42 11h2v1h-2zM45 11h1v1h-1zM47 11h2v1h-2zM4 12h1v1h-1zM6 12h1v1h-1zM8 12h1v1h-1zM10 12h1v1h-1zM13 12h4v1h-4zM20 12h1v1h-1zM22 12h5v1h-5zM28 12h7v1h-7zM36 12h1v1h-1zM38 12h1v1h-1zM40 12h1v1h-1zM42 12h1v1h-1zM44 12h1v1h-1zM47 12h1v1h-1zM52 12h1v1h-1zM55 12h1v1h-1zM4 13h1v1h-1zM6 13h1v1h-1zM11 13h2v1h-2zM17 13h1v1h-1zM21 13h1v1h-1zM23 13h1v1h-1zM25 13h1v1h-1zM29 13h1v1h-1zM34 13h1v1h-1zM37 13h2v1h-2zM40 13h3v1h-3zM45 13h1v1h-1zM48 13h1v1h-1zM50 13h2v1h-2zM53 13h3v1h-3zM6 14h5v1h-5zM12 14h2v1h-2zM16 14h1v1h-1zM18 14h3v1h-3zM25 14h2v1h-2zM31 14h1v1h-1zM33 14h2v1h-2zM36 14h1v1h-1zM38 14h4v1h-4zM43 14h1v1h-1zM46 14h1v1h-1zM49 14h4v1h-4zM54 14h1v1h-1zM56 14h1v1h-1zM5 15h3v1h-3zM9 15h1v1h-1zM11 15h1v1h-1zM13 15h2v1h-2zM17 15h1v1h-1zM19 15h4v1h-4zM25 15h2v1h-2zM28 15h1v1h-1zM30 15h1v1h-1zM32 15h1v1h-1zM34 15h2v1h-2zM37 15h1v1h-1zM40 15h4v1h-4zM46 15h1v1h-1zM49 15h3v1h-3zM53 15h3v1h-3zM4 16h1v1h-1zM6 16h1v1h-1zM10 16h2v1h-2zM14 16h1v1h-1zM16 16h5v1h-5zM22 16h1v1h-1zM24 16h1v1h-1zM30 16h3v1h-3zM40 16h2v1h-2zM46 16h1v1h-1zM48 16h2v1h-2zM51 16h2v1h-2zM54 16h1v1h-1zM56 16h1v1h-1zM9 17h1v1h-1zM11 17h1v1h-1zM13 17h2v1h-2zM16 17h1v1h-1zM18 17h1v1h-1zM20 17h1v1h-1zM23 17h2v1h-2zM26 17h1v1h-1zM29 17h3v1h-3zM34 17h4v1h-4zM39 17h1v1h-1zM42 17h1v1h-1zM44 17h2v1h-2zM47 17h1v1h-1zM49 17h1v1h-1zM51 17h1v1h-1zM54 17h2v1h-2zM4 18h2v1h-2zM7 18h2v1h-2zM10 18h1v1h-1zM12 18h1v1h-1zM14 18h1v1h-1zM16 18h1v1h-1zM20 18h5v1h-5zM26 18h4v1h-4zM32 18h1v1h-1zM34 18h1v1h-1zM37 18h4v1h-4zM42 18h1v1h-1zM46 18h1v1h-1zM48 18h1v1h-1zM50 18h2v1h-2zM54 18h1v1h-1zM56 18h1v1h-1zM4 19h3v1h-3zM9 19h1v1h-1zM11 19h1v1h-1zM15 19h2v1h-2zM18 19h1v1h-1zM24 19h5v1h-5zM31 19h1v1h-1zM33 19h3v1h-3zM37 19h1v1h-1zM39 19h1v1h-1zM45 19h1v1h-1zM47 19h4v1h-4zM55 19h1v1h-1zM4 20h5v1h-5zM10 20h1v1h-1zM12 20h2v1h-2zM16 20h1v1h-1zM19 20h2v1h-2zM22 20h3v1h-3zM26 20h2v1h-2zM30 20h2v1h-2zM34 20h1v1h-1zM36 20h3v1h-3zM40 20h1v1h-1zM45 20h1v1h-1zM47 20h2v1h-2zM50 20h1v1h-1zM52 20h2v1h-2zM4 21h3v1h-3zM8 21h2v1h-2zM11 21h1v1h-1zM15 21h1v1h-1zM17 21h1v1h-1zM20 21h1v1h-1zM22 21h1v1h-1zM24 21h3v1h-3zM30 21h1v1h-1zM32 21h2v1h-2zM35 21h1v1h-1zM37 21h1v1h-1zM39 21h1v1h-1zM42 21h5v1h-5zM51 21h1v1h-1zM4 22h1v1h-1zM6 22h1v1h-1zM9 22h3v1h-3zM13 22h1v1h-1zM15 22h4v1h-4zM22 22h2v1h-2zM26 22h2v1h-2zM30 22h1v1h-1zM33 22h1v1h-1zM35 22h4v1h-4zM40 22h1v1h-1zM42 22h3v1h-3zM48 22h5v1h-5zM4 23h1v1h-1zM8 23h2v1h-2zM13 23h5v1h-5zM19 23h1v1h-1zM28 23h1v1h-1zM32 23h2v1h-2zM35 23h2v1h-2zM39 23h2v1h-2zM42 23h2v1h-2zM45 23h1v1h-1zM47 23h2v1h-2zM51 23h6v1h-6zM4 24h1v1h-1zM7 24h2v1h-2zM10 24h1v1h-1zM12 24h1v1h-1zM16 24h1v1h-1zM18 24h2v1h-2zM22 24h3v1h-3zM26 24h2v1h-2zM30 24h2v1h-2zM33 24h1v1h-1zM35 24h1v1h-1zM37 24h2v1h-2zM40 24h1v1h-1zM43 24h1v1h-1zM47 24h1v1h-1zM49 24h1v1h-1zM51 24h3v1h-3zM55 24h2v1h-2zM4 25h1v1h-1zM6 25h2v1h-2zM9 25h1v1h-1zM12 25h3v1h-3zM18 25h3v1h-3zM23 25h1v1h-1zM27 25h1v1h-1zM29 25h1v1h-1zM35 25h1v1h-1zM37 25h2v1h-2zM42 25h4v1h-4zM51 25h1v1h-1zM53 25h1v1h-1zM55 25h1v1h-1zM6 26h3v1h-3zM10 26h8v1h-8zM21 26h2v1h-2zM24 26h2v1h-2zM27 26h3v1h-3zM32 26h1v1h-1zM34 26h7v1h-7zM42 26h2v1h-2zM46 26h1v1h-1zM48 26h3v1h-3zM52 26h2v1h-2zM55 26h2v1h-2zM7 27h1v1h-1zM16 27h6v1h-6zM23 27h3v1h-3zM27 27h1v1h-1zM29 27h2v1h-2zM33 27h1v1h-1zM35 27h3v1h-3zM41 27h1v1h-1zM43 27h5v1h-5zM49 27h1v1h-1zM53 27h1v1h-1zM55 27h1v1h-1zM4 28h2v1h-2zM8 28h5v1h-5zM14 28h1v1h-1zM16 28h2v1h-2zM20 28h2v1h-2zM23 28h3v1h-3zM27 28h7v1h-7zM37 28h2v1h-2zM40 28h2v1h-2zM43 28h2v1h-2zM46 28h1v1h-1zM48 28h6v1h-6zM55 28h2v1h-2zM4 29h1v1h-1zM6 29h1v1h-1zM8 29h1v1h-1zM12 29h1v1h-1zM15 29h2v1h-2zM19 29h2v1h-2zM22 29h1v1h-1zM24 29h2v1h-2zM27 29h2v1h-2zM32 29h1v1h-1zM36 29h3v1h-3zM41 29h2v1h-2zM44 29h2v1h-2zM48 29h1v1h-1zM52 29h2v1h-2zM55 29h2v1h-2zM4 30h1v1h-1zM6 30h1v1h-1zM8 30h1v1h-1zM10 30h1v1h-1zM12 30h2v1h-2zM15 30h1v1h-1zM18 30h2v1h-2zM22 30h1v1h-1zM24 30h1v1h-1zM28 30h1v1h-1zM30 30h1v1h-1zM32 30h2v1h-2zM37 30h2v1h-2zM40 30h1v1h-1zM43 30h2v1h-2zM46 30h3v1h-3zM50 30h1v1h-1zM52 30h2v1h-2zM56 30h1v1h-1zM4 31h1v1h-1zM8 31h1v1h-1zM12 31h2v1h-2zM15 31h1v1h-1zM17 31h3v1h-3zM21 31h8v1h-8zM32 31h1v1h-1zM35 31h1v1h-1zM37 31h2v1h-2zM42 31h3v1h-3zM48 31h1v1h-1zM52 31h2v1h-2zM55 31h1v1h-1zM5 32h1v1h-1zM7 32h6v1h-6zM16 32h2v1h-2zM19 32h6v1h-6zM26 32h1v1h-1zM28 32h6v1h-6zM35 32h1v1h-1zM39 32h2v1h-2zM42 32h1v1h-1zM44 32h2v1h-2zM47 32h6v1h-6zM55 32h2v1h-2zM4 33h2v1h-2zM7 33h1v1h-1zM9 33h1v1h-1zM11 33h3v1h-3zM15 33h4v1h-4zM22 33h1v1h-1zM24 33h2v1h-2zM27 33h1v1h-1zM29 33h1v1h-1zM31 33h1v1h-1zM35 33h3v1h-3zM39 33h3v1h-3zM43 33h1v1h-1zM45 33h1v1h-1zM50 33h2v1h-2zM53 33h3v1h-3zM4 34h3v1h-3zM8 34h4v1h-4zM14 34h1v1h-1zM17 34h2v1h-2zM20 34h1v1h-1zM24 34h4v1h-4zM30 34h1v1h-1zM32 34h1v1h-1zM34 34h2v1h-2zM39 34h5v1h-5zM52 34h2v1h-2zM56 34h1v1h-1zM6 35h1v1h-1zM11 35h2v1h-2zM15 35h2v1h-2zM19 35h1v1h-1zM24 35h1v1h-1zM26 35h1v1h-1zM31 35h1v1h-1zM33 35h1v1h-1zM35 35h1v1h-1zM37 35h1v1h-1zM39 35h1v1h-1zM41 35h1v1h-1zM43 35h3v1h-3zM47 35h1v1h-1zM49 35h1v1h-1zM5 36h1v1h-1zM7 36h1v1h-1zM10 36h1v1h-1zM12 36h1v1h-1zM14 36h3v1h-3zM20 36h2v1h-2zM24 36h4v1h-4zM30 36h5v1h-5zM36 36h1v1h-1zM41 36h1v1h-1zM46 36h3v1h-3zM50 36h2v1h-2zM55 36h2v1h-2zM5 37h1v1h-1zM9 37h1v1h-1zM11 37h2v1h-2zM18 37h3v1h-3zM22 37h2v1h-2zM28 37h1v1h-1zM33 37h1v1h-1zM35 37h1v1h-1zM37 37h5v1h-5zM44 37h2v1h-2zM48 37h2v1h-2zM51 37h1v1h-1zM53 37h1v1h-1zM56 37h1v1h-1zM5 38h3v1h-3zM9 38h3v1h-3zM17 38h2v1h-2zM23 38h1v1h-1zM26 38h9v1h-9zM36 38h6v1h-6zM44 38h3v1h-3zM53 38h2v1h-2zM56 38h1v1h-1zM5 39h2v1h-2zM9 39h1v1h-1zM11 39h1v1h-1zM13 39h2v1h-2zM16 39h1v1h-1zM18 39h1v1h-1zM23 39h1v1h-1zM25 39h1v1h-1zM28 39h1v1h-1zM30 39h2v1h-2zM35 39h2v1h-2zM38 39h2v1h-2zM43 39h5v1h-5zM49 39h5v1h-5zM55 39h1v1h-1zM6 40h1v1h-1zM10 40h2v1h-2zM13 40h4v1h-4zM18 40h1v1h-1zM20 40h1v1h-1zM22 40h1v1h-1zM24 40h1v1h-1zM26 40h1v1h-1zM28 40h1v1h-1zM30 40h1v1h-1zM32 40h1v1h-1zM34 40h1v1h-1zM39 40h2v1h-2zM45 40h1v1h-1zM48 40h1v1h-1zM50 40h1v1h-1zM52 40h1v1h-1zM54 40h1v1h-1zM56 40h1v1h-1zM4 41h4v1h-4zM13 41h4v1h-4zM20 41h2v1h-2zM23 41h1v1h-1zM25 41h1v1h-1zM27 41h4v1h-4zM33 41h1v1h-1zM36 41h1v1h-1zM38 41h1v1h-1zM40 41h1v1h-1zM42 41h1v1h-1zM44 41h4v1h-4zM50 41h1v1h-1zM52 41h2v1h-2zM55 41h1v1h-1zM6 42h3v1h-3zM10 42h1v1h-1zM15 42h2v1h-2zM20 42h1v1h-1zM22 42h1v1h-1zM25 42h1v1h-1zM27 42h2v1h-2zM30 42h3v1h-3zM34 42h1v1h-1zM36 42h1v1h-1zM38 42h1v1h-1zM41 42h1v1h-1zM43 42h2v1h-2zM46 42h1v1h-1zM48 42h3v1h-3zM52 42h1v1h-1zM56 42h1v1h-1zM5 43h2v1h-2zM8 43h1v1h-1zM11 43h3v1h-3zM15 43h3v1h-3zM19 43h1v1h-1zM21 43h1v1h-1zM25 43h2v1h-2zM28 43h2v1h-2zM36 43h1v1h-1zM39 43h3v1h-3zM48 43h4v1h-4zM54 43h1v1h-1zM56 43h1v1h-1zM4 44h2v1h-2zM10 44h1v1h-1zM12 44h1v1h-1zM14 44h3v1h-3zM18 44h1v1h-1zM20 44h2v1h-2zM24 44h2v1h-2zM28 44h1v1h-1zM30 44h2v1h-2zM36 44h2v1h-2zM41 44h2v1h-2zM44 44h1v1h-1zM46 44h1v1h-1zM50 44h1v1h-1zM52 44h1v1h-1zM54 44h3v1h-3zM5 45h1v1h-1zM7 45h1v1h-1zM9 45h1v1h-1zM11 45h1v1h-1zM13 45h2v1h-2zM18 45h1v1h-1zM20 45h1v1h-1zM23 45h1v1h-1zM25 45h1v1h-1zM27 45h2v1h-2zM31 45h7v1h-7zM39 45h3v1h-3zM47 45h1v1h-1zM49 45h1v1h-1zM51 45h1v1h-1zM53 45h3v1h-3zM4 46h2v1h-2zM7 46h4v1h-4zM12 46h1v1h-1zM14 46h1v1h-1zM17 46h3v1h-3zM26 46h3v1h-3zM30 46h1v1h-1zM34 46h1v1h-1zM39 46h4v1h-4zM44 46h1v1h-1zM46 46h1v1h-1zM50 46h1v1h-1zM54 46h3v1h-3zM5 47h2v1h-2zM11 47h1v1h-1zM13 47h1v1h-1zM16 47h1v1h-1zM20 47h2v1h-2zM23 47h1v1h-1zM27 47h2v1h-2zM32 47h2v1h-2zM35 47h3v1h-3zM39 47h1v1h-1zM46 47h2v1h-2zM49 47h1v1h-1zM51 47h1v1h-1zM55 47h1v1h-1zM7 48h1v1h-1zM10 48h4v1h-4zM16 48h2v1h-2zM20 48h2v1h-2zM23 48h3v1h-3zM28 48h7v1h-7zM37 48h1v1h-1zM39 48h1v1h-1zM41 48h1v1h-1zM43 48h2v1h-2zM47 48h6v1h-6zM54 48h1v1h-1zM56 48h1v1h-1zM12 49h3v1h-3zM16 49h1v1h-1zM18 49h1v1h-1zM20 49h1v1h-1zM23 49h3v1h-3zM27 49h2v1h-2zM32 49h1v1h-1zM34 49h1v1h-1zM36 49h9v1h-9zM46 49h1v1h-1zM48 49h1v1h-1zM52 49h1v1h-1zM55 49h1v1h-1zM4 50h7v1h-7zM13 50h3v1h-3zM18 50h1v1h-1zM23 50h1v1h-1zM26 50h1v1h-1zM28 50h1v1h-1zM30 50h1v1h-1zM32 50h3v1h-3zM37 50h3v1h-3zM41 50h4v1h-4zM46 50h1v1h-1zM48 50h1v1h-1zM50 50h1v1h-1zM52 50h1v1h-1zM54 50h3v1h-3zM4 51h1v1h-1zM10 51h1v1h-1zM14 51h1v1h-1zM18 51h1v1h-1zM21 51h2v1h-2zM24 51h1v1h-1zM28 51h1v1h-1zM32 51h1v1h-1zM37 51h1v1h-1zM39 51h1v1h-1zM41 51h2v1h-2zM44 51h2v1h-2zM47 51h2v1h-2zM52 51h2v1h-2zM55 51h2v1h-2zM4 52h1v1h-1zM6 52h3v1h-3zM10 52h1v1h-1zM12 52h3v1h-3zM16 52h1v1h-1zM18 52h4v1h-4zM23 52h1v1h-1zM26 52h7v1h-7zM34 52h1v1h-1zM36 52h3v1h-3zM40 52h1v1h-1zM42 52h1v1h-1zM45 52h2v1h-2zM48 52h5v1h-5zM54 52h3v1h-3zM4 53h1v1h-1zM6 53h3v1h-3zM10 53h1v1h-1zM15 53h1v1h-1zM20 53h1v1h-1zM22 53h3v1h-3zM27 53h4v1h-4zM34 53h1v1h-1zM38 53h1v1h-1zM40 53h4v1h-4zM45 53h2v1h-2zM51 53h1v1h-1zM53 53h3v1h-3zM4 54h1v1h-1zM6 54h3v1h-3zM10 54h1v1h-1zM12 54h2v1h-2zM16 54h2v1h-2zM19 54h4v1h-4zM26 54h2v1h-2zM30 54h3v1h-3zM34 54h1v1h-1zM36 54h1v1h-1zM38 54h3v1h-3zM42 54h2v1h-2zM48 54h1v1h-1zM51 54h3v1h-3zM56 54h1v1h-1zM4 55h1v1h-1zM10 55h1v1h-1zM13 55h2v1h-2zM17 55h1v1h-1zM21 55h1v1h-1zM24 55h1v1h-1zM26 55h2v1h-2zM29 55h3v1h-3zM34 55h4v1h-4zM39 55h2v1h-2zM42 55h2v1h-2zM45 55h3v1h-3zM52 55h1v1h-1zM4 56h7v1h-7zM12 56h3v1h-3zM16 56h1v1h-1zM18 56h2v1h-2zM21 56h1v1h-1zM23 56h1v1h-1zM26 56h1v1h-1zM30 56h2v1h-2zM35 56h1v1h-1zM38 56h3v1h-3zM42 56h1v1h-1zM44 56h1v1h-1zM46 56h2v1h-2zM50 56h1v1h-1zM56 56h1v1h-1z" fill="#000"/></g></svg>