<svg xmlns="http://www.w3.org/2000/svg" viewBox="0 0 61 61" role="img" aria-labelledby="title desc"><title id="title">QRIS SONKUPIK</title><desc id="desc">Kode pembayaran QRIS merchant SONKUPIK, AUDIO DEVELOPER, DIGITAL &amp; KREATIF. NMID ID1026551401775.</desc><metadata id="verified-emv-payload">00020101021126610014COM.GO-JEK.WWW01189360091439191940880210G9191940880303UMI51440014ID.CO.QRIS.WWW0215ID10265514017750303UMI5204899953033605802ID5925Sonkupik, Audio Developer6005BOGOR61051692362140703A0111036216304F498</metadata><rect width="61" height="61" fill="#fff"/><path d="M4 4h7v1h-7zM13 4h1v1h-1zM15 4h1v1h-1zM17 4h1v1h-1zM21 4h1v1h-1zM25 4h2v1h-2zM28 4h1v1h-1zM30 4h1v1h-1zM35 4h1v1h-1zM43 4h1v1h-1zM45 4h2v1h-2zM50 4h7v1h-7zM4 5h1v1h-1zM10 5h1v1h-1zM13 5h2v1h-2zM17 5h1v1h-1zM19 5h1v1h-1zM21 5h2v1h-2zM25 5h2v1h-2zM29 5h1v1h-1zM31 5h1v1h-1zM35 5h3v1h-3zM39 5h1v1h-1zM42 5h6v1h-6zM50 5h1v1h-1zM56 5h1v1h-1zM4 6h1v1h-1zM6 6h3v1h-3zM10 6h1v1h-1zM15 6h1v1h-1zM17 6h2v1h-2zM20 6h1v1h-1zM23 6h2v1h-2zM27 6h2v1h-2zM31 6h4v1h-4zM38 6h1v1h-1zM40 6h2v1h-2zM43 6h3v1h-3zM47 6h1v1h-1zM50 6h1v1h-1zM52 6h3v1h-3zM56 6h1v1h-1zM4 7h1v1h-1zM6 7h3v1h-3zM10 7h1v1h-1zM13 7h3v1h-3zM19 7h1v1h-1zM21 7h1v1h-1zM26 7h1v1h-1zM35 7h5v1h-5zM42 7h1v1h-1zM46 7h1v1h-1zM48 7h1v1h-1zM50 7h1v1h-1zM52 7h3v1h-3zM56 7h1v1h-1zM4 8h1v1h-1zM6 8h3v1h-3zM10 8h1v1h-1zM16 8h1v1h-1zM18 8h1v1h-1zM20 8h2v1h-2zM26 8h7v1h-7zM34 8h1v1h-1zM39 8h4v1h-4zM44 8h1v1h-1zM46 8h1v1h-1zM50 8h1v1h-1zM52 8h3v1h-3zM56 8h1v1h-1zM4 9h1v1h-1zM10 9h1v1h-1zM12 9h2v1h-2zM17 9h2v1h-2zM20 9h1v1h-1zM22 9h1v1h-1zM24 9h5v1h-5zM32 9h4v1h-4zM38 9h1v1h-1zM41 9h1v1h-1zM46 9h1v1h-1zM50 9h1v1h-1zM56 9h1v1h-1zM4 10h7v1h-7zM12 10h1v1h-1zM14 10h1v1h-1zM16 10h1v1h-1zM18 10h1v1h-1zM20 10h1v1h-1zM22 10h1v1h-1zM24 10h1v1h-1zM26 10h1v1h-1zM28 10h1v1h-1zM30 10h1v1h-1zM32 10h1v1h-1zM34 10h1v1h-1zM36 10h1v1h-1zM38 10h1v1h-1zM40 10h1v1h-1zM42 10h1v1h-1zM44 10h1v1h-1zM46 10h1v1h-1zM48 10h1v1h-1zM50 10h7v1h-7zM14 11h1v1h-1zM16 11h1v1h-1zM18 11h1v1h-1zM20 11h3v1h-3zM25 11h1v1h-1zM28 11h1v1h-1zM32 11h2v1h-2zM37 11h1v1h-1zM39 11h7v1h-7zM47 11h1v1h-1zM4 12h1v1h-1zM7 12h1v1h-1zM9 12h2v1h-2zM12 12h4v1h-4zM18 12h1v1h-1zM20 12h4v1h-4zM25 12h8v1h-8zM34 12h3v1h-3zM38 12h3v1h-3zM44 12h2v1h-2zM47 12h3v1h-3zM51 12h1v1h-1zM4 13h1v1h-1zM6 13h1v1h-1zM11 13h2v1h-2zM16 13h2v1h-2zM21 13h1v1h-1zM23 13h1v1h-1zM25 13h1v1h-1zM29 13h1v1h-1zM34 13h5v1h-5zM40 13h3v1h-3zM45 13h1v1h-1zM48 13h1v1h-1zM50 13h2v1h-2zM53 13h3v1h-3zM5 14h3v1h-3zM9 14h4v1h-4zM16 14h4v1h-4zM23 14h1v1h-1zM25 14h1v1h-1zM29 14h1v1h-1zM31 14h4v1h-4zM39 14h2v1h-2zM43 14h2v1h-2zM46 14h2v1h-2zM49 14h1v1h-1zM51 14h4v1h-4zM5 15h1v1h-1zM7 15h1v1h-1zM11 15h2v1h-2zM14 15h1v1h-1zM17 15h4v1h-4zM22 15h1v1h-1zM24 15h5v1h-5zM32 15h1v1h-1zM35 15h3v1h-3zM39 15h3v1h-3zM43 15h1v1h-1zM45 15h2v1h-2zM48 15h4v1h-4zM53 15h1v1h-1zM55 15h1v1h-1zM4 16h1v1h-1zM6 16h1v1h-1zM10 16h2v1h-2zM13 16h1v1h-1zM16 16h5v1h-5zM22 16h1v1h-1zM24 16h1v1h-1zM30 16h5v1h-5zM40 16h2v1h-2zM46 16h1v1h-1zM48 16h2v1h-2zM52 16h1v1h-1zM54 16h1v1h-1zM56 16h1v1h-1zM5 17h1v1h-1zM8 17h2v1h-2zM16 17h3v1h-3zM24 17h1v1h-1zM30 17h4v1h-4zM36 17h4v1h-4zM41 17h2v1h-2zM45 17h1v1h-1zM49 17h3v1h-3zM53 17h4v1h-4zM5 18h6v1h-6zM13 18h5v1h-5zM20 18h1v1h-1zM22 18h2v1h-2zM26 18h1v1h-1zM28 18h3v1h-3zM32 18h1v1h-1zM34 18h1v1h-1zM36 18h3v1h-3zM40 18h1v1h-1zM45 18h2v1h-2zM50 18h2v1h-2zM56 18h1v1h-1zM5 19h2v1h-2zM9 19h1v1h-1zM11 19h1v1h-1zM13 19h1v1h-1zM15 19h2v1h-2zM24 19h5v1h-5zM31 19h1v1h-1zM33 19h3v1h-3zM38 19h2v1h-2zM45 19h1v1h-1zM47 19h4v1h-4zM55 19h1v1h-1zM6 20h2v1h-2zM9 20h6v1h-6zM16 20h1v1h-1zM18 20h2v1h-2zM22 20h1v1h-1zM27 20h1v1h-1zM29 20h4v1h-4zM34 20h3v1h-3zM38 20h1v1h-1zM40 20h2v1h-2zM44 20h2v1h-2zM48 20h1v1h-1zM52 20h1v1h-1zM56 20h1v1h-1zM4 21h2v1h-2zM7 21h2v1h-2zM11 21h1v1h-1zM13 21h2v1h-2zM20 21h4v1h-4zM25 21h3v1h-3zM32 21h1v1h-1zM35 21h2v1h-2zM38 21h1v1h-1zM43 21h2v1h-2zM46 21h1v1h-1zM48 21h1v1h-1zM54 21h1v1h-1zM4 22h1v1h-1zM7 22h1v1h-1zM10 22h1v1h-1zM13 22h1v1h-1zM15 22h2v1h-2zM18 22h1v1h-1zM21 22h1v1h-1zM24 22h2v1h-2zM27 22h1v1h-1zM30 22h1v1h-1zM33 22h1v1h-1zM35 22h2v1h-2zM38 22h1v1h-1zM40 22h1v1h-1zM42 22h3v1h-3zM48 22h5v1h-5zM4 23h2v1h-2zM11 23h1v1h-1zM13 23h1v1h-1zM15 23h2v1h-2zM18 23h8v1h-8zM28 23h2v1h-2zM33 23h1v1h-1zM36 23h1v1h-1zM38 23h3v1h-3zM45 23h1v1h-1zM48 23h1v1h-1zM50 23h3v1h-3zM54 23h2v1h-2zM4 24h1v1h-1zM6 24h1v1h-1zM8 24h3v1h-3zM15 24h2v1h-2zM23 24h1v1h-1zM25 24h1v1h-1zM31 24h1v1h-1zM35 24h6v1h-6zM44 24h2v1h-2zM47 24h3v1h-3zM52 24h5v1h-5zM4 25h1v1h-1zM7 25h1v1h-1zM9 25h1v1h-1zM11 25h4v1h-4zM17 25h2v1h-2zM21 25h1v1h-1zM23 25h1v1h-1zM25 25h1v1h-1zM27 25h1v1h-1zM29 25h1v1h-1zM31 25h1v1h-1zM35 25h1v1h-1zM37 25h2v1h-2zM41 25h1v1h-1zM44 25h2v1h-2zM51 25h1v1h-1zM53 25h1v1h-1zM55 25h1v1h-1zM5 26h1v1h-1zM8 26h3v1h-3zM12 26h2v1h-2zM15 26h2v1h-2zM20 26h1v1h-1zM22 26h2v1h-2zM25 26h2v1h-2zM28 26h1v1h-1zM31 26h2v1h-2zM34 26h1v1h-1zM36 26h2v1h-2zM39 26h5v1h-5zM46 26h4v1h-4zM52 26h1v1h-1zM55 26h1v1h-1zM6 27h1v1h-1zM9 27h1v1h-1zM12 27h1v1h-1zM15 27h3v1h-3zM19 27h1v1h-1zM25 27h1v1h-1zM27 27h3v1h-3zM31 27h2v1h-2zM35 27h1v1h-1zM37 27h1v1h-1zM41 27h5v1h-5zM47 27h2v1h-2zM51 27h1v1h-1zM53 27h3v1h-3zM4 28h2v1h-2zM8 28h5v1h-5zM14 28h4v1h-4zM19 28h1v1h-1zM23 28h3v1h-3zM28 28h6v1h-6zM37 28h3v1h-3zM41 28h1v1h-1zM43 28h2v1h-2zM46 28h8v1h-8zM55 28h2v1h-2zM4 29h3v1h-3zM8 29h1v1h-1zM12 29h1v1h-1zM14 29h4v1h-4zM19 29h3v1h-3zM23 29h4v1h-4zM28 29h1v1h-1zM32 29h1v1h-1zM35 29h3v1h-3zM39 29h2v1h-2zM42 29h1v1h-1zM47 29h2v1h-2zM52 29h1v1h-1zM55 29h1v1h-1zM4 30h1v1h-1zM8 30h1v1h-1zM10 30h1v1h-1zM12 30h2v1h-2zM16 30h1v1h-1zM21 30h2v1h-2zM28 30h1v1h-1zM30 30h1v1h-1zM32 30h1v1h-1zM36 30h3v1h-3zM42 30h5v1h-5zM48 30h1v1h-1zM50 30h1v1h-1zM52 30h3v1h-3zM56 30h1v1h-1zM4 31h1v1h-1zM8 31h1v1h-1zM12 31h2v1h-2zM16 31h3v1h-3zM21 31h6v1h-6zM28 31h1v1h-1zM32 31h1v1h-1zM37 31h2v1h-2zM42 31h3v1h-3zM48 31h1v1h-1zM52 31h2v1h-2zM55 31h1v1h-1zM7 32h6v1h-6zM14 32h1v1h-1zM19 32h1v1h-1zM21 32h2v1h-2zM24 32h1v1h-1zM28 32h6v1h-6zM35 32h2v1h-2zM38 32h5v1h-5zM45 32h1v1h-1zM47 32h7v1h-7zM55 32h1v1h-1zM4 33h4v1h-4zM11 33h1v1h-1zM13 33h1v1h-1zM17 33h1v1h-1zM21 33h2v1h-2zM25 33h1v1h-1zM29 33h2v1h-2zM32 33h2v1h-2zM36 33h2v1h-2zM40 33h4v1h-4zM47 33h4v1h-4zM53 33h1v1h-1zM55 33h1v1h-1zM4 34h3v1h-3zM8 34h4v1h-4zM14 34h1v1h-1zM16 34h3v1h-3zM20 34h1v1h-1zM24 34h4v1h-4zM29 34h1v1h-1zM32 34h1v1h-1zM34 34h1v1h-1zM36 34h1v1h-1zM39 34h5v1h-5zM52 34h2v1h-2zM56 34h1v1h-1zM5 35h2v1h-2zM8 35h1v1h-1zM12 35h1v1h-1zM14 35h1v1h-1zM17 35h1v1h-1zM19 35h2v1h-2zM23 35h2v1h-2zM30 35h3v1h-3zM34 35h1v1h-1zM38 35h2v1h-2zM43 35h1v1h-1zM45 35h1v1h-1zM49 35h2v1h-2zM53 35h1v1h-1zM56 35h1v1h-1zM5 36h3v1h-3zM9 36h2v1h-2zM13 36h1v1h-1zM16 36h1v1h-1zM18 36h1v1h-1zM20 36h1v1h-1zM25 36h2v1h-2zM29 36h5v1h-5zM39 36h1v1h-1zM41 36h2v1h-2zM45 36h3v1h-3zM50 36h1v1h-1zM54 36h3v1h-3zM5 37h1v1h-1zM9 37h1v1h-1zM11 37h2v1h-2zM18 37h3v1h-3zM22 37h2v1h-2zM28 37h2v1h-2zM34 37h2v1h-2zM37 37h1v1h-1zM39 37h3v1h-3zM44 37h2v1h-2zM48 37h2v1h-2zM51 37h1v1h-1zM53 37h1v1h-1zM56 37h1v1h-1zM4 38h7v1h-7zM14 38h1v1h-1zM17 38h2v1h-2zM20 38h1v1h-1zM27 38h2v1h-2zM30 38h2v1h-2zM34 38h4v1h-4zM39 38h2v1h-2zM45 38h3v1h-3zM50 38h1v1h-1zM54 38h1v1h-1zM5 39h1v1h-1zM11 39h2v1h-2zM15 39h3v1h-3zM21 39h1v1h-1zM23 39h3v1h-3zM27 39h2v1h-2zM31 39h1v1h-1zM33 39h1v1h-1zM35 39h1v1h-1zM37 39h1v1h-1zM42 39h3v1h-3zM46 39h5v1h-5zM52 39h4v1h-4zM5 40h1v1h-1zM10 40h2v1h-2zM14 40h5v1h-5zM20 40h1v1h-1zM22 40h3v1h-3zM26 40h1v1h-1zM28 40h1v1h-1zM30 40h1v1h-1zM32 40h1v1h-1zM34 40h1v1h-1zM37 40h4v1h-4zM45 40h1v1h-1zM48 40h1v1h-1zM50 40h2v1h-2zM54 40h1v1h-1zM56 40h1v1h-1zM6 41h3v1h-3zM11 41h1v1h-1zM13 41h5v1h-5zM21 41h1v1h-1zM23 41h6v1h-6zM30 41h1v1h-1zM32 41h2v1h-2zM35 41h4v1h-4zM40 41h3v1h-3zM45 41h2v1h-2zM51 41h2v1h-2zM55 41h2v1h-2zM7 42h4v1h-4zM12 42h1v1h-1zM16 42h1v1h-1zM20 42h1v1h-1zM22 42h2v1h-2zM26 42h1v1h-1zM28 42h1v1h-1zM31 42h4v1h-4zM37 42h3v1h-3zM41 42h6v1h-6zM49 42h4v1h-4zM54 42h1v1h-1zM56 42h1v1h-1zM4 43h2v1h-2zM7 43h2v1h-2zM11 43h3v1h-3zM15 43h2v1h-2zM18 43h2v1h-2zM21 43h2v1h-2zM24 43h1v1h-1zM28 43h2v1h-2zM36 43h1v1h-1zM39 43h2v1h-2zM42 43h3v1h-3zM48 43h4v1h-4zM54 43h1v1h-1zM56 43h1v1h-1zM4 44h3v1h-3zM9 44h2v1h-2zM15 44h2v1h-2zM18 44h1v1h-1zM20 44h2v1h-2zM23 44h2v1h-2zM28 44h5v1h-5zM35 44h4v1h-4zM41 44h1v1h-1zM44 44h1v1h-1zM46 44h2v1h-2zM52 44h4v1h-4zM5 45h4v1h-4zM11 45h1v1h-1zM13 45h3v1h-3zM18 45h1v1h-1zM20 45h2v1h-2zM24 45h1v1h-1zM28 45h1v1h-1zM30 45h3v1h-3zM34 45h2v1h-2zM37 45h1v1h-1zM40 45h1v1h-1zM43 45h3v1h-3zM47 45h3v1h-3zM53 45h1v1h-1zM55 45h1v1h-1zM4 46h2v1h-2zM7 46h4v1h-4zM12 46h1v1h-1zM14 46h1v1h-1zM17 46h5v1h-5zM23 46h1v1h-1zM25 46h1v1h-1zM27 46h2v1h-2zM30 46h1v1h-1zM34 46h1v1h-1zM39 46h2v1h-2zM42 46h1v1h-1zM44 46h1v1h-1zM46 46h1v1h-1zM50 46h1v1h-1zM54 46h3v1h-3zM5 47h2v1h-2zM13 47h2v1h-2zM16 47h2v1h-2zM19 47h1v1h-1zM23 47h7v1h-7zM33 47h1v1h-1zM36 47h3v1h-3zM41 47h1v1h-1zM44 47h2v1h-2zM49 47h3v1h-3zM53 47h1v1h-1zM55 47h2v1h-2zM7 48h1v1h-1zM10 48h4v1h-4zM17 48h2v1h-2zM20 48h4v1h-4zM25 48h8v1h-8zM34 48h1v1h-1zM36 48h2v1h-2zM39 48h14v1h-14zM56 48h1v1h-1zM12 49h5v1h-5zM18 49h1v1h-1zM21 49h1v1h-1zM23 49h3v1h-3zM28 49h1v1h-1zM32 49h1v1h-1zM34 49h1v1h-1zM36 49h3v1h-3zM41 49h5v1h-5zM48 49h1v1h-1zM52 49h1v1h-1zM55 49h1v1h-1zM4 50h7v1h-7zM13 50h1v1h-1zM15 50h5v1h-5zM25 50h2v1h-2zM28 50h1v1h-1zM30 50h1v1h-1zM32 50h4v1h-4zM37 50h1v1h-1zM40 50h1v1h-1zM42 50h2v1h-2zM47 50h2v1h-2zM50 50h1v1h-1zM52 50h4v1h-4zM4 51h1v1h-1zM10 51h1v1h-1zM12 51h1v1h-1zM14 51h2v1h-2zM20 51h1v1h-1zM22 51h1v1h-1zM25 51h2v1h-2zM28 51h1v1h-1zM32 51h2v1h-2zM35 51h3v1h-3zM41 51h1v1h-1zM44 51h1v1h-1zM47 51h2v1h-2zM52 51h5v1h-5zM4 52h1v1h-1zM6 52h3v1h-3zM10 52h1v1h-1zM13 52h3v1h-3zM18 52h4v1h-4zM23 52h1v1h-1zM25 52h1v1h-1zM28 52h5v1h-5zM34 52h2v1h-2zM37 52h2v1h-2zM40 52h1v1h-1zM42 52h1v1h-1zM45 52h2v1h-2zM48 52h5v1h-5zM54 52h3v1h-3zM4 53h1v1h-1zM6 53h3v1h-3zM10 53h1v1h-1zM12 53h1v1h-1zM14 53h1v1h-1zM16 53h2v1h-2zM22 53h1v1h-1zM24 53h3v1h-3zM30 53h1v1h-1zM32 53h1v1h-1zM34 53h1v1h-1zM36 53h1v1h-1zM40 53h1v1h-1zM42 53h6v1h-6zM50 53h2v1h-2zM54 53h3v1h-3zM4 54h1v1h-1zM6 54h3v1h-3zM10 54h1v1h-1zM13 54h2v1h-2zM16 54h5v1h-5zM22 54h1v1h-1zM24 54h1v1h-1zM26 54h3v1h-3zM31 54h6v1h-6zM38 54h1v1h-1zM40 54h1v1h-1zM43 54h1v1h-1zM45 54h1v1h-1zM47 54h2v1h-2zM52 54h3v1h-3zM56 54h1v1h-1zM4 55h1v1h-1zM10 55h1v1h-1zM14 55h1v1h-1zM17 55h1v1h-1zM21 55h1v1h-1zM24 55h1v1h-1zM26 55h2v1h-2zM29 55h2v1h-2zM33 55h1v1h-1zM35 55h3v1h-3zM39 55h2v1h-2zM42 55h2v1h-2zM45 55h3v1h-3zM52 55h1v1h-1zM4 56h7v1h-7zM12 56h1v1h-1zM16 56h6v1h-6zM29 56h2v1h-2zM33 56h2v1h-2zM39 56h4v1h-4zM46 56h2v1h-2zM53 56h1v1h-1z" fill="#000" shape-rendering="crispEdges"/></svg>